<?xml version="1.0"?>
<svg width="800px" height="800px" viewBox="0 0 24 24" fill="none" xmlns="http://www.w3.org/2000/svg">
  <path d="m13,3l-4.8,0c-1.12,0 -1.68,0 -2.11,0.22c-0.37,0.19 -0.68,0.5 -0.87,0.87c-0.22,0.43 -0.22,0.99 -0.22,2.11l0,11.6c0,1.12 0,1.68 0.22,2.11c0.19,0.37 0.5,0.68 0.87,0.87c0.43,0.22 0.99,0.22 2.11,0.22l7.6,0c1.12,0 1.68,0 2.11,-0.22c0.37,-0.19 0.68,-0.5 0.87,-0.87c0.22,-0.43 0.22,-0.99 0.22,-2.11l0,-8.8m-6,-6l6,6m-6,-6l0,4.4c0,0.56 0,0.84 0.11,1.05c0.09,0.19 0.25,0.35 0.44,0.44c0.21,0.11 0.49,0.11 1.05,0.11l4.4,0" stroke="#ffffff" stroke-width="1" stroke-linecap="round" stroke-linejoin="round"/>
</svg>