<?xml version="1.0"?>
<svg width="800px" height="800px" viewBox="0 0 24 24" fill="none" xmlns="http://www.w3.org/2000/svg">
  <path d="m3,8.2c0,-1.12 0,-1.68 0.22,-2.11c0.19,-0.37 0.5,-0.68 0.87,-0.87c0.43,-0.22 0.99,-0.22 2.11,-0.22l3.47,0c0.49,0 0.74,0 0.97,0.06c0.2,0.04 0.4,0.13 0.58,0.23c0.2,0.13 0.37,0.3 0.72,0.65l0.12,0.12c0.35,0.35 0.52,0.52 0.72,0.65c0.18,0.1 0.38,0.19 0.58,0.23c0.23,0.06 0.48,0.06 0.97,0.06l3.47,0c1.12,0 1.68,0 2.11,0.22c0.37,0.19 0.68,0.5 0.87,0.87c0.22,0.43 0.22,0.99 0.22,2.11l0,5.6c0,1.12 0,1.68 -0.22,2.11c-0.19,0.37 -0.5,0.68 -0.87,0.87c-0.43,0.22 -0.99,0.22 -2.11,0.22l-11.6,0c-1.12,0 -1.68,0 -2.11,-0.22c-0.37,-0.19 -0.68,-0.5 -0.87,-0.87c-0.22,-0.43 -0.22,-0.99 -0.22,-2.11l0,-7.6z" stroke="#ffffff" stroke-width="1" stroke-linecap="round" stroke-linejoin="round"/>
  <path d="m10.05,13.34l4,0m-2,-2l0,4m7,-8" stroke="#ffffff" stroke-width="1" stroke-linecap="round" stroke-linejoin="round"/>
</svg>