<!-- rocks.svg  (key: seaFloor.type.rocks) -->
<svg xmlns="http://www.w3.org/2000/svg" width="24" height="24" viewBox="0 0 24 24"
     fill="none" stroke="#ffffff" stroke-width="1"
     stroke-linecap="round" stroke-linejoin="round"
     role="img" aria-label="Rocks">
    <!-- ground line -->
    <path d="M3 18h18"/>
    <!-- rocks -->
    <path d="M6 18c-1.5 0-2.5-1.2-2.5-2.5S4.8 13 6.5 13c.6-1.2 1.6-2 3-2 1.8 0 3.2 1.4 3.2 3.2"/>
    <path d="M12.7 18c0-1.6 1.3-2.8 2.9-2.8.9 0 1.7.4 2.2 1.1.4-.3.9-.5 1.5-.5 1.2 0 2.2 1 2.2 2.2"/>
    <!-- cracks -->
    <path d="M7.8 15.2l.8 1.1"/>
    <path d="M15.5 16.2l-.7.9"/>
</svg>
